<svg xmlns="http://www.w3.org/2000/svg" width="18" height="15" viewBox="0 0 18 15"><path fill="#f8f8f8" d="M18 14.36c0 .35-.3.64-.65.64H.65a.64.64 0 0 1-.64-.64V13.1c0-.35.29-.64.64-.64h16.7c.35 0 .65.3.65.64zm0-3.82c0 .35-.3.64-.65.64H.65a.64.64 0 0 1-.64-.64V9.27c0-.35.29-.64.64-.64h16.7c.35 0 .65.3.65.64zm0-3.82c0 .35-.3.64-.65.64H.65A.64.64 0 0 1 0 6.72V5.45c0-.35.29-.64.64-.64h16.7c.35 0 .65.3.65.64zm0-5.09c0-.35-.3-.64-.65-.64H.65a.64.64 0 0 0-.64.64V2.9c0 .35.29.64.64.64h16.7c.35 0 .65-.29.65-.64z"/></svg>