<svg xmlns="http://www.w3.org/2000/svg" width="17" height="17" viewBox="0 0 17 17"><path fill="#ed7364" d="M9.52 10.22c-1.63-1.16-2.24-1.7-1.2-2.63 1.05-.92 1.87-1.67 1.87-3.38S8.78 1.6 8.78 1.6s1.02.16 1.57-.15c.54-.3.78-.5.78-.5h-5.2c-1.05 0-3.94 1.18-3.94 3.95 0 2.77 3 3.36 4.09 3.32-.61.74-.09 1.42.24 1.77.33.35.26.46-.13.46s-5.23.06-5.23 3.52 6.43 3.7 8.54 1.84c2.11-1.86 1.65-4.44.02-5.6zM6.43 7.54c-2.59 0-3.77-6.05-.72-6.05 2.37-.1 4.16 6.05.72 6.05zm-.31 8.48c-2.15 0-3.31-1.08-3.31-2.68s1.57-2.4 4.51-2.4c.8.62 2.22 1.37 2.22 2.86 0 1.5-1.27 2.22-3.42 2.22zM14 1v1.97h-1.99v1.02H14v1.97h1.02V4h1.95V2.97h-1.95V1z"/></svg>