<svg xmlns="http://www.w3.org/2000/svg" width="33" height="33" viewBox="0 0 33 33"><path fill="#ed7364" d="M18.04 19.45c-3.26-2.33-4.48-3.43-2.4-5.27 2.1-1.85 3.74-3.34 3.74-6.76 0-3.43-2.82-5.18-2.82-5.18s2.04.3 3.14-.31c1.08-.61 1.56-1.01 1.56-1.01h-10.4c-2.1 0-7.88 2.37-7.88 7.9s6 6.72 8.18 6.63c-1.22 1.5-.18 2.85.48 3.55.66.7.52.93-.26.93S.92 20.03.92 26.95c0 6.93 12.86 7.43 17.08 3.7 4.22-3.74 3.3-8.88.04-11.2zm-6.18-5.36c-5.18 0-7.54-12.12-1.44-12.12 4.74-.17 8.32 12.12 1.44 12.12zm-.62 16.95c-4.3 0-6.62-2.16-6.62-5.36s3.14-4.79 9.02-4.79c1.6 1.23 4.44 2.72 4.44 5.71 0 2.99-2.54 4.44-6.84 4.44zM27 1v3.94h-3.98v2.04H27v3.95h2.04V6.98h3.9V4.94h-3.9V1z"/></svg>