<svg xmlns="http://www.w3.org/2000/svg" width="22" height="17" viewBox="0 0 22 17"><path fill="#00acee" d="M17.6 3.37c-.02 0-.03-.02-.05-.04a3.97 3.97 0 0 0-2.9-1.04l-.03-.07.02-.01c1.01-.22 1.6-.45 1.78-.7.06-.2-.01-.3-.23-.33-.51.06-.97.17-1.39.32.53-.32.73-.55.61-.66-.52.01-1.08.27-1.67.77.22-.36.3-.55.25-.59-.28.19-.53.39-.74.6-.45.47-.8.91-1.08 1.3l-.01.04a11.46 11.46 0 0 0-1.5 3.3l-.11.1-.02.01c-.42-.5-.93-.93-1.54-1.28a18.2 18.2 0 0 0-2.54-1.28 21.91 21.91 0 0 0-3.22-1.29C3.22 3.68 3.82 4.61 5 5.28v.02c-.42 0-.82.06-1.21.17.07 1.08.88 1.82 2.4 2.23l-.01.02c-.6-.03-1.09.17-1.47.58.5.93 1.38 1.37 2.66 1.34-.25.12-.45.26-.58.41-.23.23-.31.51-.23.82.27.48.77.7 1.49.66l.04.05-.02.02a5.67 5.67 0 0 1-4.54 1.67l-.03.02c-1.08-.01-2.24-.5-3.5-1.49a10.81 10.81 0 0 0 5.01 3.76c2.37.74 4.74.8 7.11.16h.04c2.3-.63 4.24-1.93 5.85-3.89.74-1.02 1.2-2 1.39-2.94 1.2.04 2.06-.3 2.6-.99l-.02-.02c-.4.14-1.18.1-2.34-.13v-.13h.01c1.27-.13 2.02-.52 2.26-1.17-.89.33-1.76.34-2.62.03a5.32 5.32 0 0 0-1.69-3.11z"/></svg>